<svg xmlns="http://www.w3.org/2000/svg" data-name="Layer 1" viewBox="0 0 367.3 419.5">
  <defs>
    <clipPath id="a">
      <path fill="none" d="M179 0c-359.6-1.3-79.4 419-1.3 419.5S561.3 1.3 179 0z"/>
    </clipPath>
  </defs>
  <g clip-path="url(#a)">
    <path fill="#b85949" d="M179 0c-359.6-1.3-79.4 419-1.3 419.5S561.3 1.3 179 0z"/>
    <g fill="#dba350">
      <path d="M51.18 121.95h264.83v3H51.18zM51.18 188.16h264.83v3H51.18zM51.18 254.37h264.83v3H51.18zM51.18 320.58h264.83v3H51.18zM51.18 386.79h264.83v3H51.18z"/>
    </g>
    <g fill="#dba350">
      <path d="M49.18 102.26h4v352.23h-4zM102.15 102.26h4v352.23h-4zM155.61 102.26h3v352.23h-3zM209.08 102.26h2v352.23h-2zM262.05 102.26h2v352.23h-2zM315.52 102.26h1v352.23h-1z"/>
    </g>
    <path fill="#dba350" d="M51.18 102.26h264.83v21.19H51.18z"/>
    <circle cx="104.15" cy="222.76" r="15.89" fill="#dba350"/>
    <circle cx="157.11" cy="222.76" r="15.89" fill="#dba350"/>
    <circle cx="210.08" cy="156.56" r="15.89" fill="#dba350"/>
    <path fill="#dba350" d="M51.18 97.6a7.63 7.63 0 1 1 7.63-7.6 7.64 7.64 0 0 1-7.63 7.6zm0-12.26A4.63 4.63 0 1 0 55.81 90a4.64 4.64 0 0 0-4.63-4.66zM263.05 97.6a7.63 7.63 0 1 1 7.63-7.6 7.64 7.64 0 0 1-7.63 7.6zm0-12.26a4.63 4.63 0 1 0 4.63 4.66 4.64 4.64 0 0 0-4.63-4.66zM316 97.6a7.63 7.63 0 1 1 7.64-7.6 7.64 7.64 0 0 1-7.64 7.6zm0-12.26a4.63 4.63 0 1 0 4.64 4.66 4.63 4.63 0 0 0-4.64-4.66z"/>
  </g>
</svg>
