<svg class="ChordDiagram" viewBox="0 0 70 80"><g class="Fretboard"><g class="Frets" transform="translate(10, 10)"><line class="fret-2" x1="0" x2="50" y1="0" y2="0"></line><line class="fret-3" x1="0" x2="50" y1="12.5" y2="12.5"></line><line class="fret-4" x1="0" x2="50" y1="25" y2="25"></line><line class="fret-5" x1="0" x2="50" y1="37.5" y2="37.5"></line><line class="fret-6" x1="0" x2="50" y1="50" y2="50"></line><line class="fret-7" x1="0" x2="50" y1="62.5" y2="62.5"></line></g><g class="Strings" transform="translate(10, 10)"><line class="string-6" x1="0" x2="0" y1="0" y2="62.5"></line><line class="string-5" x1="10" x2="10" y1="0" y2="62.5"></line><line class="string-4" x1="20" x2="20" y1="0" y2="62.5"></line><line class="string-3" x1="30" x2="30" y1="0" y2="62.5"></line><line class="string-2" x1="40" x2="40" y1="0" y2="62.5"></line><line class="string-1" x1="50" x2="50" y1="0" y2="62.5"></line></g></g><g class="Labels"><g class="NutLabels" transform="translate(10, 0)"><text alignment-baseline="end" text-anchor="middle" x="0" y="8">x</text></g><g class="FretLabels" transform="translate(0, 10)"><text x="6" y="7.75">2</text><text x="6" y="20.25">3</text><text x="6" y="32.75">4</text><text x="6" y="45.25">5</text><text x="6" y="57.75">6</text></g></g><g class="Fingerings" transform="translate(10, 10)"><g class="Fingering" transform="translate(10, 18.75)"><circle cx="0" cy="0" r="3"></circle><text x="0" y="1.5" text-anchor="middle">1</text></g><g class="Fingering" transform="translate(20, 43.75)"><circle cx="0" cy="0" r="3"></circle><text x="0" y="1.5" text-anchor="middle">3</text></g><g class="Fingering" transform="translate(30, 43.75)"><circle cx="0" cy="0" r="3"></circle><text x="0" y="1.5" text-anchor="middle">3</text></g><g class="Fingering" transform="translate(40, 43.75)"><circle cx="0" cy="0" r="3"></circle><text x="0" y="1.5" text-anchor="middle">3</text></g><g class="Fingering" transform="translate(50, 18.75)"><circle cx="0" cy="0" r="3"></circle><text x="0" y="1.5" text-anchor="middle">1</text></g></g></svg>
