<?xml version="1.0" encoding="utf-8"?>
<!-- Generator: Adobe Illustrator 22.1.0, SVG Export Plug-In . SVG Version: 6.00 Build 0)  -->
<svg version="1.1" id="Layer_1" xmlns="http://www.w3.org/2000/svg" xmlns:xlink="http://www.w3.org/1999/xlink" x="0px" y="0px"
	 viewBox="0 0 367.3 419.5" style="enable-background:new 0 0 367.3 419.5;" xml:space="preserve">
<style type="text/css">
	.st0{fill:#B85949;}
	.st1{fill:#DBA350;}
</style>
<g id="Stratocaster">
	<path class="st0" d="M179,0c-359.6-1.3-79.4,419-1.3,419.5S561.3,1.3,179,0z"/>
	<path class="st1" d="M305.5,167.5c-22.9,0-4.5,58.5-49.5,67.5c-18.3,3.7-33.7-1.6-41.2-8.6L211.1,1.2C201,0.5,190.3,0,178.9,0
		c-7.7,0-15,0.1-22.1,0.5L154,171.4c-3,3.8-6.5,7.2-10.6,9.6c-13.9,8.3-32.1,1.1-40.5-4.5c-40.5-27-9-63-31.5-81
		c-7.9-6.3-36,9-36,63c0,49.5,27,103.5,27,135c0,4.4-0.4,8.8-1.2,13.4c40.1,64,89.9,112.4,116.4,112.6c9.1,0.1,21.2-5.5,34.9-15.4
		c-1.3,0.3-2.7,0.4-4.1,0.1l-57.3-11.9c-4.8-1-8-5.8-7-10.6s5.8-8,10.6-7l57.3,11.9c4.8,1,8,5.8,7,10.6c-0.2,1-0.6,1.9-1.1,2.7
		c26.2-20.4,57.3-55.1,84.3-95.7c5.6-31.9,25.5-55.6,25.5-82.7C328,212.5,332.5,167.5,305.5,167.5L305.5,167.5z M211,343h-58.5
		c-5,0-9-4-9-9s4-9,9-9H211c5,0,9,4,9,9S216,343,211,343z M211,280h-58.5c-5,0-9-4-9-9s4-9,9-9H211c5,0,9,4,9,9S216,280,211,280z"/>
</g>
</svg>
