<svg xmlns="http://www.w3.org/2000/svg" data-name="Layer 1" viewBox="0 0 1136.21 419.5">
  <defs>
    <clipPath id="a">
      <path fill="none" d="M179 0c-359.6-1.3-79.4 419-1.3 419.5S561.34 1.3 179 0z"/>
    </clipPath>
  </defs>
  <g clip-path="url(#a)">
    <path fill="#a0382a" d="M179 0c-359.6-1.3-79.4 419-1.3 419.5S561.34 1.3 179 0z"/>
    <g data-name="E Chord">
      <path fill="#561f1d" d="M55.22 117.97h257V422.9h-257z"/>
      <g fill="#dba350">
        <path d="M51.22 201.5h264.83v3H51.22zM51.22 281.04h264.83v3H51.22zM51.22 360.58h264.83v3H51.22z"/>
      </g>
      <path fill="#dba350" d="M51.22 102.27h264.83v21.19H51.22z"/>
      <g fill="#dba350">
        <path d="M103.42 102.27h4V454.5h-4zM155.62 102.27h4V454.5h-4zM207.82 102.27h4V454.5h-4zM260.02 102.27h4V454.5h-4zM312.22 102.27h4V454.5h-4zM51.22 102.27h4V454.5h-4z"/>
      </g>
      <g fill="#dba350">
        <circle cx="209.96" cy="163.58" r="22.24"/>
        <circle cx="158.26" cy="242.33" r="22.24"/>
        <circle cx="105.26" cy="242.33" r="22.24"/>
      </g>
      <g fill="#dba350">
        <path d="M51.22 97.6a7.63 7.63 0 1 1 7.63-7.6 7.64 7.64 0 0 1-7.63 7.6zm0-12.25A4.63 4.63 0 1 0 55.85 90a4.63 4.63 0 0 0-4.63-4.65zM263.09 97.6a7.63 7.63 0 1 1 7.63-7.6 7.64 7.64 0 0 1-7.63 7.6zm0-12.25a4.63 4.63 0 1 0 4.63 4.65 4.63 4.63 0 0 0-4.63-4.65zM316.06 97.6a7.63 7.63 0 1 1 7.62-7.6 7.64 7.64 0 0 1-7.62 7.6zm0-12.25a4.63 4.63 0 1 0 4.62 4.65 4.62 4.62 0 0 0-4.62-4.65z"/>
      </g>
    </g>
    <path fill="#dba350" d="M286 320.9c0-25.26 16.77-48.77 21.88-63.9 5-14.73 9.66-55.06-6.93-55.06-12.76 0-17.65 25.56-47.14 25.56-17.72 0-29.18-10.9-35.5-26l-5.91-220q-13.38-.78-27.95-.83-16.18-.06-30.81.91l-2 168.12c-55 4.89-96.82 31.89-96.82 78.69 0 49.16 26.92 58.13 26.92 92.54 0 8.3-2.77 15.6-7.27 22.75 39.7 55.61 83.53 95.03 108.53 95.19s71.2-38.9 113.65-94.27c-6.5-8.33-10.65-15.96-10.65-23.7zm-51.82 79.53a5.06 5.06 0 0 1-5 5H139.2a5.06 5.06 0 0 1-5-5V363a5.06 5.06 0 0 1 5-5h89.89a5.06 5.06 0 0 1 5 5zm0-114.7a5.05 5.05 0 0 1-5 5H139.2a5.05 5.05 0 0 1-5-5v-37.47a5.06 5.06 0 0 1 5-5h89.89a5.06 5.06 0 0 1 5 5z" data-name="Les Paul"/>
    <path fill="#dba350" d="M311.52 164.4c-23.73 0-4.65 60.5-51.19 69.8-18.95 3.8-34.81-1.68-42.56-8.87L214-7.58q-15.77-1.17-33.3-1.24-11.89 0-22.9.51l-2.89 176.71a40.26 40.26 0 0 1-10.92 10c-14.39 8.63-33.23 1.12-41.89-4.65-41.88-27.93-9.3-65.15-32.57-83.77-8.13-6.5-37.23 9.31-37.23 65.15 0 51.19 27.92 107 27.92 139.61A85.1 85.1 0 0 1 59 308.55c41.51 66.14 93 116.28 120.37 116.45 9.36.06 21.89-5.72 36.11-16a9.14 9.14 0 0 1-4.2.11L152 396.89a9.33 9.33 0 0 1-7.23-11 9.35 9.35 0 0 1 11-7.23l59.24 12.26a9.34 9.34 0 0 1 7.23 11 9.18 9.18 0 0 1-1.11 2.83c27.08-21.11 59.27-57 87.21-99 5.79-32.95 26.41-57.52 26.41-85.53.04-9.28 4.69-55.82-23.23-55.82zm-97.73 181.49h-60.5a9.31 9.31 0 0 1 0-18.61h60.5a9.31 9.31 0 1 1 0 18.61zm0-65.15h-60.5a9.31 9.31 0 0 1 0-18.61h60.5a9.31 9.31 0 1 1 0 18.61z"/>
    <g fill="#dba350">
      <path d="M219.22 410.79a7 7 0 0 0-3.2-2.23l-58.08-19.65a7.07 7.07 0 1 0-4.53 13.4L205.63 420a151.77 151.77 0 0 0 13.59-9.21z"/>
      <path d="M317.07 163.74c-31.8 0-16.52 76.41-70.62 76.41-14.17 0-22.95-8.29-28.87-20.2L214.24-9.38c-10.46-.76-21.49-1.18-33.15-1.22q-11.94 0-23 .51l-2.52 179.35c-4.13 5-8 8.52-11.14 8.52-20.24 0-63.2-51.84-109.46-5.58-13.79 13.79-13.25 54.91-5.9 75.91 4.8 13.69 11.7 28.56 17.09 43.64 28.4 49.69 63.55 92.79 93 116.89v-31.43h94.34v21.89c28.72-25.32 61.36-64.46 88.38-108.71 7.91-23.16 19.82-40.13 19.82-63.71 0-23.02-.26-62.94-24.63-62.94zM217 273.44h-61.33a7.07 7.07 0 1 1 0-14.14H217a7.07 7.07 0 1 1 0 14.14z"/>
    </g>
    <path fill="#dba350" d="M295.59 281.57c-.35-50.55 22.22-64.88 8.18-101.36-14.58-37.89-90.71-37.21-90.71-37.21l-.16-157.38h-54.35l-.1 157s-84.36-4.18-96.89 42.67c-9.22 34.44 8.36 55.51 8.36 91.11 0 46.77-64.34 83.85-64.34 191.46 0 63.23 83.79 107.22 165.2 104.63 130.87-4.18 185.39-39.63 185.39-112.89 0-99.33-60.17-123.43-60.58-178.03zm-111.95 32.91A42.44 42.44 0 1 1 226.08 272a42.45 42.45 0 0 1-42.44 42.48z"/>
  </g>
  <g fill="#a0382a" data-name="SHRED AHEAD">
    <path d="M501.87 34.73c-6.93-8.31-19.08-12.88-34.2-12.88h-.5c-30.42 0-48.24 13.07-52.95 38.9l-4 23c-2.65 14.94 4.57 27.55 22.08 38.58l18.29 11.52c6.55 4 8.1 7.67 6.63 15.64l-2.51 13.81c-1.78 10.93-9.72 12.57-14.29 12.57-3.51 0-6-.86-7.45-2.54-1.94-2.29-1.81-6.1-1.36-8.85l5.49-30.61h-35.61l-6 33.39c-2.09 12-.2 21.56 5.62 28.47 6.76 8 18.48 12.14 34.83 12.14h.5c32.25 0 48.08-11.79 52.94-39.39l4.5-25.23c3.73-20.39-7.4-29.2-22.35-38.61L453 93.14c-6.11-3.87-7.49-7.28-6.18-15.15l2.26-12.09c1.29-8.11 5.8-12.05 13.8-12.05 3.64 0 6.18.81 7.55 2.43s1.87 4.56 1.25 8.43l-5.26 28.64h35.68L507.61 62c2.02-11.11.09-20.27-5.74-27.27zM590.97 23.85l-12.75 73h-26.14l12.75-73h-36.1l-31.98 182h36.1l13.5-76h26.14l-13.5 76h36.11l31.98-182h-36.11zM728.31 36.61c-7-8.35-19.14-12.76-35.15-12.76H645l-32 182h36.1l12.25-69.75h9.52l9.75 69.75h35.9l-12-75.12c13.22-6.16 21.1-17.49 24.06-34.53l5.53-31.2c2.1-11.75.14-21.29-5.8-28.39zm-52.95 19.74h12.3c4.49 0 7.37.83 8.8 2.55s1.81 4.89 1 9.34l-4 22.74c-2 10.88-7.54 13.12-15.31 13.12h-11.08zM835.85 56.35l5.73-32.5h-83.86l-31.98 182h84.61l5.73-32.5h-48.49l7.75-43.5h40.01l5.73-32.5h-40.01l7.04-41h47.74zM938.55 36.61c-7-8.35-19.13-12.76-35.14-12.76h-47.69l-32 182h48.92c31.93 0 49.07-12.68 54-39.9L944.36 65c2.09-11.74.14-21.28-5.81-28.39zm-62.39 136.74h-10.58l20.52-117h11.81c4.48 0 7.36.83 8.8 2.55s1.81 4.89 1 9.34l-16.25 92c-1.95 10.87-7.53 13.11-15.3 13.11z"/>
    <g>
      <path d="M662.09 399.66l-2.56-182h-45.76l-71.95 182h39l14.22-39h29.25l-.82 39zm-36.21-123.28l-1.12 53.28H606.4zM767.76 217.66l-13.95 73h-29.24l13.95-73h-38.85l-34.98 182h38.85l14.76-76h29.24l-14.77 76h38.86l34.98-182h-38.85zM906.17 250.16l6.27-32.5h-91.08l-34.98 182h91.89l6.28-32.5H831.5l8.49-43.5h43.75l6.28-32.5h-43.78l7.71-41h52.22zM1001.44 399.66l-2.56-182h-45.76l-72 182h39.05l14.22-39h29.25l-.82 39zm-36.21-123.28l-1.12 53.28h-18.36zM1129.9 231.4c-7.4-9-20.9-13.74-39-13.74H1039l-35 182h53.19c34.7 0 53.34-12.66 58.67-39.84l19.42-101c2.23-11.16.4-20.39-5.38-27.42zm-68.84 135.76h-11.9l22.45-117h13.24c5.17 0 8.58 1 10.14 2.87 1.44 1.74 1.74 4.75.91 9l-17.77 92c-1.87 9.44-6.65 13.13-17.07 13.13z"/>
    </g>
  </g>
</svg>
