<?xml version="1.0" standalone="no"?>
<!DOCTYPE svg PUBLIC "-//W3C//DTD SVG 20010904//EN"
 "http://www.w3.org/TR/2001/REC-SVG-20010904/DTD/svg10.dtd">
<svg version="1.0" xmlns="http://www.w3.org/2000/svg"
 width="512.000000pt" height="512.000000pt" viewBox="0 0 512.000000 512.000000"
 preserveAspectRatio="xMidYMid meet">
<metadata>
Created by potrace 1.11, written by Peter Selinger 2001-2013
</metadata>
<g transform="translate(0.000000,512.000000) scale(0.100000,-0.100000)"
fill="#000000" stroke="none">
<path d="M0 2560 l0 -2560 2560 0 2560 0 0 2560 0 2560 -2560 0 -2560 0 0
-2560z m2835 1898 c4 -4 15 -464 24 -1023 l16 -1017 25 -19 c76 -58 243 -83
365 -55 168 40 253 142 305 366 57 246 93 291 206 260 58 -17 115 -80 140
-157 16 -49 19 -89 19 -258 0 -234 -1 -240 -122 -530 -82 -199 -142 -301 -307
-522 -178 -239 -345 -428 -504 -569 l-93 -84 -22 26 c-20 23 -52 32 -314 85
-261 54 -295 59 -320 47 -51 -24 -57 -102 -10 -133 13 -8 136 -38 275 -66 138
-29 249 -56 246 -60 -8 -13 -94 -58 -155 -80 -154 -56 -322 21 -579 267 -175
168 -344 375 -516 630 l-84 126 0 78 c0 103 -20 212 -75 405 -84 297 -144 539
-159 646 -33 225 -15 465 48 618 48 119 140 215 218 228 31 4 41 0 77 -32 57
-52 71 -105 71 -270 0 -72 5 -158 11 -191 24 -131 119 -247 258 -313 62 -29
88 -35 158 -39 100 -5 151 10 211 66 l40 37 6 115 c3 63 8 324 11 580 3 256 8
552 11 658 l7 194 253 -4 c139 -1 256 -6 259 -10z"/>
<path d="M2229 2051 c-16 -16 -29 -37 -29 -46 0 -24 27 -72 45 -79 9 -3 154
-6 321 -6 291 0 305 1 324 20 31 31 27 93 -6 119 -26 20 -38 21 -326 21 l-300
0 -29 -29z"/>
<path d="M2229 1461 c-31 -25 -32 -83 -1 -114 22 -22 25 -22 333 -22 l311 0
19 24 c25 31 25 85 -1 111 -19 19 -33 20 -329 20 -287 0 -310 -1 -332 -19z"/>
</g>
</svg>
