<?xml version="1.0" standalone="no"?>
<!DOCTYPE svg PUBLIC "-//W3C//DTD SVG 20010904//EN"
 "http://www.w3.org/TR/2001/REC-SVG-20010904/DTD/svg10.dtd">
<svg version="1.0" xmlns="http://www.w3.org/2000/svg"
 width="1356.000000pt" height="1356.000000pt" viewBox="0 0 1356.000000 1356.000000"
 preserveAspectRatio="xMidYMid meet">
<metadata>
Created by potrace 1.11, written by Peter Selinger 2001-2013
</metadata>
<g transform="translate(0.000000,1356.000000) scale(0.100000,-0.100000)"
fill="#000000" stroke="none">
<path d="M6327 13554 c-1 -1 -94 -5 -207 -8 -113 -4 -227 -8 -255 -10 -27 -2
-103 -7 -168 -11 -65 -3 -125 -8 -135 -9 -9 -2 -62 -7 -117 -11 -55 -4 -108
-9 -119 -11 -11 -2 -44 -6 -75 -9 -63 -5 -143 -14 -181 -20 -14 -2 -50 -7 -80
-10 -30 -4 -64 -9 -75 -11 -11 -3 -38 -7 -60 -9 -22 -3 -53 -8 -68 -11 -16 -3
-38 -7 -50 -9 -52 -6 -117 -17 -182 -30 -38 -8 -81 -16 -95 -19 -69 -12 -279
-60 -385 -87 -803 -205 -1454 -520 -1970 -953 -83 -70 -342 -327 -388 -386
-21 -26 -46 -56 -56 -67 -33 -36 -159 -210 -216 -297 -51 -79 -185 -312 -185
-321 0 -2 -18 -41 -39 -87 -63 -134 -90 -198 -84 -198 3 0 1 -6 -5 -12 -31
-39 -145 -426 -186 -633 -34 -170 -33 -164 -41 -225 -4 -29 -9 -62 -11 -74 -2
-12 -7 -48 -10 -81 -3 -33 -7 -71 -10 -85 -25 -153 -25 -935 1 -1069 1 -9 6
-50 10 -91 3 -41 8 -86 10 -100 2 -14 7 -50 10 -80 4 -30 8 -64 10 -75 2 -11
6 -40 9 -65 4 -25 13 -85 21 -135 86 -528 253 -1147 471 -1747 59 -163 129
-347 153 -403 5 -11 44 -103 86 -205 89 -212 83 -200 206 -465 166 -362 426
-864 607 -1178 12 -20 31 -52 41 -71 26 -45 172 -291 191 -321 8 -13 30 -49
49 -81 18 -31 57 -94 85 -138 29 -45 72 -112 97 -151 174 -275 589 -870 711
-1020 5 -5 25 -32 46 -60 41 -54 262 -334 320 -405 76 -91 228 -271 267 -314
6 -6 44 -49 85 -95 202 -229 557 -586 755 -762 323 -288 649 -522 908 -654
132 -67 311 -134 397 -149 19 -3 46 -8 60 -11 67 -14 230 -4 335 19 126 29
435 162 526 227 15 10 31 19 35 19 4 0 24 11 43 24 20 13 77 50 126 81 50 32
92 62 93 66 2 5 8 9 13 9 19 0 429 318 535 415 6 6 44 39 84 75 241 213 633
605 870 868 41 46 86 96 100 112 77 84 249 286 330 385 35 44 69 85 75 91 5 6
22 26 37 45 15 19 68 85 118 147 409 515 840 1137 1211 1750 100 164 289 490
289 497 0 2 15 30 34 62 137 235 456 881 592 1201 8 17 20 47 28 65 120 277
274 684 364 967 40 126 84 267 88 285 2 6 21 75 43 155 36 133 74 286 85 342
2 13 10 46 16 73 6 28 13 59 16 70 2 11 8 43 14 70 13 61 16 77 25 135 4 25 9
54 11 65 3 11 7 36 10 55 2 19 7 46 9 60 15 84 35 239 50 395 31 325 27 859
-10 1110 -2 17 -7 53 -10 80 -3 28 -8 61 -10 75 -3 14 -8 43 -11 65 -3 22 -7
42 -9 45 -2 3 -6 24 -10 47 -22 152 -133 528 -200 678 -7 17 -32 72 -55 124
-73 166 -231 443 -312 546 -4 6 -44 57 -88 115 -467 609 -1174 1071 -2115
1385 -122 40 -421 126 -485 139 -14 3 -50 11 -80 19 -71 18 -148 36 -180 42
-28 5 -32 6 -140 29 -41 8 -91 18 -110 21 -19 3 -42 8 -50 10 -13 3 -39 8
-115 20 -11 1 -42 6 -70 10 -27 4 -52 9 -55 10 -3 2 -37 7 -75 10 -39 4 -73 9
-77 11 -4 2 -31 7 -60 9 -29 3 -63 7 -75 9 -12 3 -53 8 -90 11 -37 4 -79 8
-93 10 -27 4 -97 11 -195 20 -33 3 -82 7 -110 10 -56 6 -147 12 -280 20 -49 3
-121 8 -160 10 -181 11 -1020 26 -1028 19z m1138 -2993 c104 -46 173 -144 181
-259 5 -57 -2 -96 -41 -257 -26 -104 -48 -197 -50 -205 -7 -31 -59 -250 -97
-410 -22 -91 -41 -172 -43 -180 -2 -8 -17 -73 -35 -145 -18 -71 -34 -140 -35
-152 -2 -11 -6 -30 -9 -41 -4 -11 -8 -29 -10 -39 -2 -10 -11 -45 -19 -78 -9
-33 -18 -71 -21 -85 -2 -14 -23 -101 -46 -195 -22 -93 -49 -206 -60 -250 -10
-44 -33 -138 -50 -210 -18 -71 -34 -141 -37 -155 -2 -13 -17 -78 -33 -144 -16
-66 -27 -122 -25 -124 2 -3 355 -4 784 -3 845 1 830 1 916 -54 50 -33 111
-114 126 -169 12 -45 15 -125 6 -169 -7 -34 -16 -51 -112 -217 -43 -74 -86
-148 -95 -165 -10 -16 -63 -108 -119 -204 -55 -95 -101 -177 -101 -182 0 -5
-3 -9 -8 -9 -4 0 -13 -14 -20 -30 -8 -17 -46 -85 -86 -153 -40 -67 -118 -201
-173 -297 -56 -96 -109 -189 -120 -207 -10 -17 -36 -62 -57 -100 -41 -71 -171
-297 -186 -323 -31 -53 -77 -131 -98 -170 -14 -25 -33 -56 -42 -70 -9 -14 -37
-61 -62 -105 -25 -44 -79 -139 -121 -212 -42 -72 -85 -147 -95 -165 -11 -18
-59 -100 -107 -183 -48 -82 -97 -168 -109 -190 -12 -22 -64 -111 -115 -198
-50 -87 -103 -178 -116 -202 -14 -24 -55 -95 -91 -157 -37 -62 -74 -126 -84
-143 -296 -516 -304 -526 -408 -565 -196 -75 -407 56 -429 267 -3 29 -1 72 5
95 11 40 50 204 57 238 2 8 17 74 35 145 17 72 33 137 35 145 2 8 8 38 15 65
6 28 22 95 35 150 13 55 47 197 75 315 28 118 60 253 71 300 23 95 28 114 35
149 3 13 16 67 29 120 13 53 26 107 29 121 2 14 25 109 50 211 25 103 47 197
50 210 3 13 25 109 50 213 25 104 44 191 42 194 -2 2 -355 3 -783 3 -655 0
-786 2 -828 15 -140 40 -233 173 -227 321 3 64 20 104 109 258 38 66 102 176
141 245 40 69 76 132 82 140 5 8 26 44 46 80 21 36 83 144 139 240 146 250
359 619 382 660 11 19 34 58 50 86 17 27 41 70 55 95 61 108 937 1619 961
1656 15 24 27 45 27 48 0 3 47 85 104 183 118 202 126 215 221 382 39 67 86
138 105 157 48 47 120 82 188 91 66 9 97 4 167 -27z"/>
</g>
</svg>
